<?xml version="1.0" encoding="utf-8"?>
<!-- Generator: Adobe Illustrator 19.1.0, SVG Export Plug-In . SVG Version: 6.00 Build 0)  -->
<svg version="1.1" id="Layer_1" xmlns="http://www.w3.org/2000/svg" xmlns:xlink="http://www.w3.org/1999/xlink" x="0px" y="0px"
	 viewBox="-72 72 1200 720" enable-background="new -72 72 1200 720" xml:space="preserve" width="1200px" height="720px">
<g>
<polygon fill="#DFDFDE" points="265,478.2 256.9,469.9 258.7,468.2 265,474.7 271.3,468.2 273.1,469.9 	"/>
<path fill="#DFDFDE" d="M265,494.2c-12.1,0-22-9.9-22-22s9.9-22,22-22s22,9.9,22,22S277.1,494.2,265,494.2z M265,452.2
  c-11,0-20,9-20,20s9,20,20,20s20-9,20-20S276,452.2,265,452.2z"/>
<polygon fill="#A3A3A2" points="265,532.2 256.9,523.9 258.7,522.2 265,528.7 271.3,522.2 273.1,523.9 	"/>
<path fill="#A3A3A2" d="M265,548.2c-12.1,0-22-9.9-22-22c0-12.1,9.9-22,22-22s22,9.9,22,22C287,538.3,277.1,548.2,265,548.2z
   M265,506.2c-11,0-20,9-20,20s9,20,20,20s20-9,20-20S276,506.2,265,506.2z"/>
</g>
</svg>
